# xmcd
#
# Track frame offsets:
#	150
#	19566
#	38992
#	57545
#	75610
#	94555
#	111151
#	130233
#	151736
#	167171
#	181204
#	210329
#
# Disc length: 2933 seconds
#
# Revision: 1
# Processed by: cddbd v1.4PL0 Copyright (c) Steve Scherf et al.
# Submitted via: EasyCDDAExtractor 5.0.7
#
DISCID=8f0b730c
DTITLE=Ronny Elliot - A Postcard from Jack
DYEAR=1900
DGENRE=
TTITLE0=Blue Dreams
TTITLE1=Tell The Killer The king Is Dead
TTITLE2=If I Had You
TTITLE3=Postcard From Jack
TTITLE4=The Road to Rock 'n' Roll
TTITLE5=White Knuckle Flight
TTITLE6=Bring Me Your Love
TTITLE7=Wrong, Wrong, Wrong
TTITLE8=The Twist Come From Tampa
TTITLE9=Dancin' Withe The Man In The Moon Again
TTITLE10=Carlos Diego
TTITLE11=Anything Else But You
EXTD=
EXTT0=
EXTT1=
EXTT2=
EXTT3=
EXTT4=
EXTT5=
EXTT6=
EXTT7=
EXTT8=
EXTT9=
EXTT10=
EXTT11=
PLAYORDER=
